<svg id="visual" viewBox="0 0 100 50" width="100" height="50" xmlns="http://www.w3.org/2000/svg" xmlns:xlink="http://www.w3.org/1999/xlink" version="1.1"><path d="M0 23L14 23L14 21L29 21L29 21L43 21L43 28L57 28L57 27L71 27L71 21L86 21L86 24L100 24L100 21L100 0L100 0L86 0L86 0L71 0L71 0L57 0L57 0L43 0L43 0L29 0L29 0L14 0L14 0L0 0Z" fill="#9900ff"></path><path d="M0 15L14 15L14 13L29 13L29 16L43 16L43 18L57 18L57 18L71 18L71 16L86 16L86 16L100 16L100 12L100 0L100 0L86 0L86 0L71 0L71 0L57 0L57 0L43 0L43 0L29 0L29 0L14 0L14 0L0 0Z" fill="#7700c6"></path><path d="M0 10L14 10L14 11L29 11L29 7L43 7L43 9L57 9L57 5L71 5L71 9L86 9L86 10L100 10L100 3L100 0L100 0L86 0L86 0L71 0L71 0L57 0L57 0L43 0L43 0L29 0L29 0L14 0L14 0L0 0Z" fill="#560090"></path></svg>